<?xml version="1.0" encoding="utf-8"?>
<!-- Generator: Adobe Illustrator 21.0.0, SVG Export Plug-In . SVG Version: 6.00 Build 0)  -->
<svg version="1.1" id="Режим_изоляции"
	 xmlns="http://www.w3.org/2000/svg" xmlns:xlink="http://www.w3.org/1999/xlink" x="0px" y="0px" viewBox="0 0 74.5 22.6"
	 style="enable-background:new 0 0 74.5 22.6;" xml:space="preserve">
<style type="text/css">
	.st0{fill:#FCD600;}
	.st1{fill:none;}
	.st2{fill:#E42026;}
	.st3{fill:#00FFBB;}
</style>
<path class="st0" d="M7.7,19.3l1.5-1.5l-3-3l8.5-8.5L9.4,1.1C8-0.4,5.7-0.4,4.3,1.1L2.7,2.6C1.3,4,1.3,6.3,2.7,7.7l0.9,0.9l3.3-3.3
	L7.6,6l-6.6,6.6c-1.4,1.4-1.4,3.7,0,5.1l1.5,1.5C4,20.7,6.3,20.7,7.7,19.3z M3.4,5.1c0.3-0.3,0.7-0.3,1,0c0.3,0.3,0.3,0.7,0,1
	c-0.3,0.3-0.7,0.3-1,0C3.1,5.9,3.1,5.4,3.4,5.1z"/>
<ellipse transform="matrix(0.7071 -0.7071 0.7071 0.7071 -4.5534 19.2194)" class="st1" cx="20.9" cy="15.1" rx="0.7" ry="0.7"/>
<path class="st2" d="M22.2,13.2L21.1,12l-4,4l-0.8-0.8l5.9-5.9c1.7-1.7,1.7-4.5,0-6.2l-1.9-1.9c-1.7-1.7-4.5-1.7-6.2,0l-1.5,1.5
	l3.6,3.6l-8.4,8.4l6.5,6.5c1.7,1.7,4.5,1.7,6.2,0l1.9-1.9C24,17.7,24,14.9,22.2,13.2z M19.7,8l0.6-0.6l0.5,0.5l-0.6,0.6L20.7,9
	l-0.4,0.4l-0.6-0.6l-0.6,0.6L18.7,9l0.6-0.6l-0.6-0.6l0.4-0.4L19.7,8z M17,5.4l0.6,0.6l0.6-0.6l0.5,0.5l-0.6,0.6L18.7,7l-0.4,0.4
	l-0.6-0.6l-0.6,0.6L16.6,7l0.6-0.6l-0.6-0.6L17,5.4z M21.4,15.6c-0.3,0.3-0.7,0.3-1,0c-0.3-0.3-0.3-0.7,0-1c0.3-0.3,0.7-0.3,1,0
	C21.7,14.9,21.7,15.3,21.4,15.6z"/>
<polygon class="st2" points="48,1.2 48.5,2.8 50.2,2.8 48.8,3.8 49.3,5.4 48,4.5 46.6,5.4 47.1,3.8 45.8,2.8 47.4,2.8 "/>
<g>
	<path d="M27.6,12.9V7.3h2.5c1.4,0,2.2,0.7,2.2,1.9s-0.9,1.9-2.2,1.9h-1.2v1.7H27.6z M28.9,8.4v1.6h1.2c0.6,0,0.9-0.3,0.9-0.8
		c0-0.5-0.3-0.8-0.9-0.8H28.9z"/>
	<path d="M34.6,11.5l0.9-2.6h1.3l-1.7,4L34.7,14c-0.2,0.5-0.6,0.9-1.3,0.9c-0.3,0-0.7-0.1-0.9-0.2l0.4-0.9c0.1,0,0.3,0.1,0.4,0.1
		c0.2,0,0.4-0.2,0.5-0.4l0.3-0.6l-1.7-4h1.3L34.6,11.5z"/>
	<path d="M36.7,8.9h0.7V7.7h1.3v1.2h1.1v1h-1.1v1.4c0,0.4,0.1,0.8,0.5,0.8c0.2,0,0.4,0,0.6-0.1l0.3,0.9c-0.3,0.1-0.6,0.2-0.9,0.2
		c-1.3,0-1.7-0.6-1.7-1.8V9.8h-0.7V8.9z"/>
	<path d="M41.6,12.9h-1.3V7h1.3v2.3c0.2-0.4,0.6-0.5,1.1-0.5c1.3,0,1.8,0.8,1.8,2v2.1h-1.3v-2.1c0-0.7-0.2-1.1-0.8-1.1
		s-0.8,0.4-0.8,1.1V12.9z"/>
	<path d="M44.8,10.9c0-1.3,0.9-2.1,2.3-2.1c1.4,0,2.3,0.9,2.3,2.1c0,1.2-0.9,2.1-2.3,2.1C45.7,13,44.8,12.1,44.8,10.9z M48.2,10.9
		c0-0.7-0.4-1.1-1.1-1.1c-0.7,0-1.1,0.5-1.1,1.1s0.4,1.1,1.1,1.1C47.8,12,48.2,11.5,48.2,10.9z"/>
	<path d="M51,12.9h-1.3v-4H51v0.4c0.2-0.4,0.6-0.5,1.1-0.5c1.3,0,1.8,0.8,1.8,2v2.1h-1.3v-2.1c0-0.7-0.2-1.1-0.8-1.1
		S51,10.1,51,10.8V12.9z"/>
</g>
<g>
	<path d="M59,7.3h0.6l1.3,4.5l1.4-4.5h0.6l-1.8,5.5h-0.5l-1.3-4.8L58,12.9h-0.5l-1.8-5.5h0.6l1.4,4.5L59,7.3z"/>
	<path d="M65.7,12l0.3,0.3c-0.4,0.4-0.9,0.6-1.6,0.6c-1.2,0-1.9-0.9-1.9-2c0-1.2,0.7-2,1.9-2c1.1,0,1.9,0.7,1.9,2.2h-3.2
		c0,0.8,0.5,1.3,1.3,1.3C65.1,12.5,65.4,12.2,65.7,12z M65.7,10.7c-0.1-0.8-0.5-1.3-1.3-1.3c-0.8,0-1.2,0.6-1.3,1.3H65.7z"/>
	<path d="M69.9,12l0.3,0.3c-0.4,0.4-0.9,0.6-1.6,0.6c-1.2,0-1.9-0.9-1.9-2c0-1.2,0.7-2,1.9-2c1.1,0,1.9,0.7,1.9,2.2h-3.2
		c0,0.8,0.5,1.3,1.3,1.3C69.2,12.5,69.6,12.2,69.9,12z M69.9,10.7c-0.1-0.8-0.5-1.3-1.3-1.3c-0.8,0-1.2,0.6-1.3,1.3H69.9z"/>
	<path d="M73.7,9h0.8l-1.8,1.6l1.8,2.3h-0.6l-1.6-2l-0.6,0.5v1.5h-0.5V7h0.5v3.7L73.7,9z"/>
</g>
<g>
	<path class="st2" d="M27.6,5.4V1.6h1.7c0.7,0,1.2,0.4,1.2,1.1c0,0.6-0.4,1-1,1.1l1,1.6H30l-1-1.6H28v1.6H27.6z M28,1.9v1.5h1.3
		c0.5,0,0.8-0.3,0.8-0.8s-0.2-0.8-0.8-0.8H28z"/>
	<path class="st2" d="M32.8,5.4V5c-0.1,0.2-0.3,0.5-0.8,0.5c-0.8,0-1.2-0.5-1.2-1.2V2.7h0.4v1.5c0,0.5,0.2,0.9,0.8,0.9
		s0.8-0.4,0.8-0.9V2.7h0.4v2.7H32.8z"/>
	<path class="st2" d="M35.5,3.2C35.3,3.1,35,3,34.7,3C34.3,3,34,3.1,34,3.4c0,0.2,0.2,0.4,0.7,0.5c0.7,0.1,1.1,0.3,1.1,0.8
		c0,0.5-0.5,0.8-1.1,0.8c-0.4,0-0.9-0.1-1.2-0.3l0.2-0.3c0.3,0.2,0.6,0.3,1,0.3c0.4,0,0.7-0.1,0.7-0.5c0-0.3-0.2-0.4-0.8-0.5
		c-0.8-0.1-1-0.4-1-0.8c0-0.4,0.3-0.7,1-0.7c0.4,0,0.7,0.1,1,0.2L35.5,3.2z"/>
	<path class="st2" d="M37.9,3.2C37.7,3.1,37.4,3,37.1,3c-0.4,0-0.6,0.2-0.6,0.4c0,0.2,0.2,0.4,0.7,0.5c0.7,0.1,1.1,0.3,1.1,0.8
		c0,0.5-0.5,0.8-1.1,0.8c-0.4,0-0.9-0.1-1.2-0.3l0.2-0.3c0.3,0.2,0.6,0.3,1,0.3c0.4,0,0.7-0.1,0.7-0.5c0-0.3-0.2-0.4-0.8-0.5
		c-0.8-0.1-1-0.4-1-0.8c0-0.4,0.3-0.7,1-0.7c0.4,0,0.7,0.1,1,0.2L37.9,3.2z"/>
	<path class="st2" d="M38.8,1.7c0.1,0,0.3,0.1,0.3,0.3c0,0.1-0.1,0.3-0.3,0.3c-0.1,0-0.3-0.1-0.3-0.3C38.6,1.8,38.7,1.7,38.8,1.7z
		 M38.7,2.7H39v2.7h-0.4V2.7z"/>
	<path class="st2" d="M39.9,3.2l-0.2-0.3c0.3-0.2,0.6-0.3,1-0.3c1,0,1.1,0.5,1.1,1.2v1.6h-0.4V4.9c-0.1,0.3-0.4,0.6-0.9,0.6
		c-0.6,0-1-0.3-1-0.9c0-0.9,1.2-1,2-0.9c0-0.4-0.1-0.7-0.7-0.7C40.5,3,40.2,3.1,39.9,3.2z M40.6,5.1c0.6,0,0.9-0.4,0.9-0.9V4
		c-0.6-0.1-1.6,0-1.6,0.6C39.9,4.9,40.1,5.1,40.6,5.1z"/>
	<path class="st2" d="M42.8,2.7v0.4c0.1-0.2,0.3-0.5,0.8-0.5c0.8,0,1.2,0.5,1.2,1.2v1.5h-0.4V3.9c0-0.5-0.2-0.9-0.8-0.9
		s-0.8,0.4-0.8,0.9v1.5h-0.4V2.7H42.8z"/>
</g>
<g>
	<path class="st2" d="M27.4,17.4c0.1-0.5,0.6-1.1,1.6-1.1c0.9,0,1.5,0.4,1.5,1.3c0,0.5-0.3,0.9-0.7,1.2l-0.9,0.8h1.6v0.8h-3.1v-0.6
		l1.7-1.7c0.3-0.3,0.4-0.4,0.4-0.6c0-0.3-0.2-0.5-0.5-0.5c-0.5,0-0.6,0.3-0.7,0.6L27.4,17.4z"/>
	<path class="st2" d="M32.4,20.6c-1.2,0-1.8-1-1.8-2.2s0.6-2.2,1.8-2.2c1.2,0,1.8,1,1.8,2.2S33.7,20.6,32.4,20.6z M32.4,17.1
		c-0.6,0-0.9,0.5-0.9,1.3s0.3,1.3,0.9,1.3s0.9-0.5,0.9-1.3S33,17.1,32.4,17.1z"/>
	<path class="st2" d="M34.3,17.4c0.1-0.5,0.6-1.1,1.6-1.1c0.9,0,1.5,0.4,1.5,1.3c0,0.5-0.3,0.9-0.7,1.2l-0.9,0.8h1.6v0.8h-3.1v-0.6
		l1.7-1.7c0.3-0.3,0.4-0.4,0.4-0.6c0-0.3-0.2-0.5-0.5-0.5c-0.5,0-0.6,0.3-0.7,0.6L34.3,17.4z"/>
	<path class="st2" d="M39.3,20.6c-1.2,0-1.8-1-1.8-2.2s0.6-2.2,1.8-2.2c1.2,0,1.8,1,1.8,2.2S40.5,20.6,39.3,20.6z M39.3,17.1
		c-0.6,0-0.9,0.5-0.9,1.3s0.3,1.3,0.9,1.3s0.9-0.5,0.9-1.3S39.9,17.1,39.3,17.1z"/>
</g>
<g>
	<polygon class="st3" points="54.9,21.9 43.2,21 44.3,15.7 54.3,15.1 	"/>
	<g>
		<g>
			<path d="M46.2,19.2h1.4v0.6h-2v-2.8h0.7V19.2z"/>
			<path d="M48.2,16.8c0.2,0,0.3,0.2,0.3,0.3c0,0.2-0.2,0.3-0.3,0.3c-0.2,0-0.3-0.2-0.3-0.3C47.9,16.9,48,16.8,48.2,16.8z
				 M47.9,17.7h0.6v2h-0.6V17.7z"/>
			<path d="M49.9,19l0.5-1.3h0.7l-0.8,2h-0.6l-0.8-2h0.7L49.9,19z"/>
			<path d="M53.2,19.5c-0.2,0.2-0.5,0.3-1,0.3c-0.8,0-1.1-0.5-1.1-1.1s0.3-1.1,1.1-1.1c0.8,0,1.2,0.5,1.1,1.3h-1.5
				c0,0.2,0.1,0.4,0.5,0.4c0.3,0,0.5-0.1,0.6-0.2L53.2,19.5z M52.7,18.5c0-0.2-0.1-0.4-0.4-0.4c-0.4,0-0.4,0.2-0.4,0.4H52.7z"/>
		</g>
	</g>
</g>
</svg>
