<?xml version="1.0" encoding="utf-8"?>
<!-- Generator: Adobe Illustrator 22.0.0, SVG Export Plug-In . SVG Version: 6.00 Build 0)  -->
<svg version="1.1" id="Layer_1" xmlns="http://www.w3.org/2000/svg" xmlns:xlink="http://www.w3.org/1999/xlink" x="0px" y="0px"
	 viewBox="0 0 121.9 22.9" style="enable-background:new 0 0 121.9 22.9;" xml:space="preserve">
<style type="text/css">
	.st0{fill-rule:evenodd;clip-rule:evenodd;fill:#FFFFFF;}
	.st1{fill-rule:evenodd;clip-rule:evenodd;fill:#FF002B;}
</style>
<path class="st0" d="M86.9,0l0.7,1.5c1.6-1,3.4-1.5,5.3-1.5H93c2.1,0,3.9,0.4,5.3,1.2c0.7,0.4,1.4,0.9,2,1.5l-3.6,3
	c-0.3-0.2-0.5-0.5-0.9-0.6c-0.6-0.3-1.3-0.5-2.3-0.5l-0.3,0h-0.4c-1,0-1.9,0.2-2.7,0.6c-0.7,0.4-1.3,1-1.7,1.7
	c-0.4,0.7-0.6,1.4-0.6,2.4l0,0.3V22l-5,0V0H86.9z M4,0l0.7,1.5C6.3,0.5,8.1,0,10,0h0.1c2.1,0,3.9,0.4,5.3,1.2c1.5,0.8,2.6,2,3.4,3.4
	C19.6,6.1,20,7.8,20,9.9V22h-5V9.5c0-0.9-0.2-1.8-0.5-2.4l-0.1-0.2c-0.4-0.7-1-1.3-1.7-1.7c-0.7-0.4-1.4-0.6-2.4-0.6l-0.3,0H10
	c-1,0-1.9,0.2-2.7,0.6C6.6,5.5,6,6.1,5.6,6.8C5.2,7.5,5,8.2,5,9.2l0,0.3V22H0V0H4z M112,0c2.1,0,3.9,0.4,5.3,1.2
	c1.4,0.8,2.6,2,3.4,3.4c0.8,1.5,1.2,3.2,1.2,5.3v2.1c0,2.1-0.4,3.9-1.2,5.3c-0.8,1.4-2,2.6-3.4,3.4c-1.5,0.8-3.2,1.2-5.3,1.2h-0.1
	c-2.1,0-3.9-0.4-5.3-1.2c-1.4-0.8-2.6-2-3.4-3.4c-0.8-1.5-1.2-3.2-1.2-5.3V9.9c0-2.1,0.4-3.9,1.2-5.3c0.8-1.5,2-2.6,3.4-3.4
	c1.5-0.8,3.2-1.2,5.3-1.2H112L112,0z M33.1,0c2.1,0,3.9,0.4,5.3,1.2c1.4,0.8,2.6,2,3.4,3.4C42.6,6.1,43,7.8,43,9.9v2.1
	c0,0.3,0,0.6,0,0.9l-15,0c0,2.5,2,4.5,4.5,4.5h1c1.6,0,2.9-0.8,3.8-2c0.1,0,0.2,0,0.2,0h5l0.1,0c-0.2,0.7-0.4,1.3-0.8,1.9
	c-0.8,1.4-2,2.6-3.4,3.4c-1.5,0.8-3.2,1.2-5.3,1.2h-0.1c-2.1,0-3.9-0.4-5.3-1.2c-1.4-0.8-2.6-2-3.4-3.4c-0.8-1.5-1.2-3.2-1.2-5.3
	V9.9c0-2.1,0.4-3.9,1.2-5.3c0.8-1.5,2-2.6,3.4-3.4C29.1,0.4,30.8,0,32.9,0H33.1L33.1,0z M51,0v12.5l0,0.3c0,0.9,0.2,1.7,0.6,2.4
	c0.4,0.7,1,1.3,1.7,1.7c0.7,0.4,1.6,0.6,2.7,0.6H56l0.3,0c0.9,0,1.7-0.2,2.4-0.6c0.7-0.4,1.3-1,1.7-1.7l0.1-0.2
	c0.3-0.7,0.5-1.5,0.5-2.4V0h5v22h-4l-0.7-1.5c-1.6,1-3.4,1.5-5.3,1.5h-0.1c-2.1,0-3.9-0.4-5.3-1.2c-1.5-0.8-2.6-2-3.4-3.4
	c-0.8-1.5-1.2-3.2-1.2-5.3V0H51z M112,4.5L112,4.5c-1.1,0-2,0.2-2.7,0.6c-0.7,0.4-1.3,1-1.7,1.7c-0.4,0.7-0.6,1.4-0.6,2.4l0,0.3v3.1
	c0,1,0.2,1.9,0.6,2.7c0.4,0.7,1,1.3,1.7,1.7c0.7,0.4,1.4,0.6,2.4,0.6l0.3,0h0.1c1,0,1.9-0.2,2.7-0.6c0.7-0.4,1.3-1,1.7-1.7
	c0.4-0.7,0.6-1.4,0.6-2.4l0-0.3V9.5c0-1-0.2-1.9-0.6-2.7c-0.4-0.7-1-1.3-1.7-1.7C113.9,4.7,113,4.5,112,4.5L112,4.5z M33.5,4.5h-1
	c-2.4,0-4.4,1.9-4.5,4.3L28,9h10l0-0.2C37.9,6.4,35.9,4.5,33.5,4.5"/>
<path class="st1" d="M78.4,19.5c0,1.9-1.6,3.5-3.5,3.5c-1.9,0-3.5-1.6-3.5-3.5S73,16,74.9,16C76.8,16,78.4,17.5,78.4,19.5"/>
</svg>